<svg width="720" height="460" viewBox="0 0 720 460" xmlns="http://www.w3.org/2000/svg" style="font-family:-apple-system,BlinkMacSystemFont,'Segoe UI',Helvetica,Arial,sans-serif">
  <style>
    .bt { font-size:14px; font-weight:600; text-anchor:middle; dominant-baseline:central; }
    .bs { font-size:12px; text-anchor:middle; dominant-baseline:central; }
    .arr { stroke:#656d76; stroke-width:1.5; fill:none; }
  </style>
  <defs>
    <marker id="a" viewBox="0 0 10 10" refX="8" refY="5" markerWidth="6" markerHeight="6" orient="auto-start-reverse"><path d="M2 1L8 5L2 9" fill="none" stroke="#656d76" stroke-width="1.5" stroke-linecap="round" stroke-linejoin="round"/></marker>
    <marker id="ag" viewBox="0 0 10 10" refX="8" refY="5" markerWidth="6" markerHeight="6" orient="auto-start-reverse"><path d="M2 1L8 5L2 9" fill="none" stroke="#3B6D11" stroke-width="1.5" stroke-linecap="round" stroke-linejoin="round"/></marker>
  </defs>

  <rect width="720" height="460" rx="12" fill="#ffffff" stroke="#d0d7de" stroke-width="1"/>

  <!-- Row 1: Capture -->
  <rect x="50" y="30" width="195" height="58" rx="8" fill="#EEEDFE" stroke="#534AB7" stroke-width="0.8"/>
  <text class="bt" x="147" y="50" fill="#3C3489">/edd save (plugin)</text>
  <text class="bs" x="147" y="70" fill="#534AB7">Snapshot from session</text>

  <rect x="280" y="30" width="195" height="58" rx="8" fill="#E1F5EE" stroke="#0F6E56" stroke-width="0.8"/>
  <text class="bt" x="377" y="50" fill="#085041">edd mine (CLI)</text>
  <text class="bs" x="377" y="70" fill="#0F6E56">Extract from history</text>

  <rect x="510" y="34" width="140" height="50" rx="8" fill="#EAF3DE" stroke="#3B6D11" stroke-width="0.8"/>
  <text class="bt" x="580" y="54" fill="#27500A" font-size="13">edd.yaml</text>
  <text class="bs" x="580" y="70" fill="#3B6D11">Golden cases</text>

  <line x1="245" y1="59" x2="278" y2="59" class="arr" marker-end="url(#a)"/>
  <line x1="475" y1="59" x2="508" y2="59" class="arr" marker-end="url(#a)"/>
  <text x="260" y="52" font-size="10" fill="#656d76" text-anchor="middle">or</text>

  <!-- Row 2: Evaluate -->
  <rect x="100" y="140" width="195" height="58" rx="8" fill="#E1F5EE" stroke="#0F6E56" stroke-width="0.8"/>
  <text class="bt" x="197" y="160" fill="#085041">run</text>
  <text class="bs" x="197" y="180" fill="#0F6E56">Replay cases via agent</text>

  <rect x="330" y="140" width="130" height="58" rx="8" fill="#E1F5EE" stroke="#0F6E56" stroke-width="0.8"/>
  <text class="bt" x="395" y="160" fill="#085041">judge</text>
  <text class="bs" x="395" y="180" fill="#0F6E56">LLM scoring</text>

  <rect x="500" y="140" width="150" height="58" rx="8" fill="#EEEDFE" stroke="#534AB7" stroke-width="0.8"/>
  <text class="bt" x="575" y="160" fill="#3C3489">/edd (plugin)</text>
  <text class="bs" x="575" y="180" fill="#534AB7">Run via subagent</text>

  <!-- Arrows row 1→2 -->
  <path d="M580 84 L580 108 L197 108 L197 138" fill="none" class="arr" marker-end="url(#a)"/>
  <line x1="295" y1="169" x2="328" y2="169" class="arr" marker-end="url(#a)"/>

  <!-- Row 3: Improve -->
  <rect x="60" y="252" width="170" height="58" rx="8" fill="#FAECE7" stroke="#993C1D" stroke-width="0.8"/>
  <text class="bt" x="145" y="272" fill="#712B13">suggest</text>
  <text class="bs" x="145" y="292" fill="#993C1D">Improvement hints</text>

  <rect x="260" y="252" width="140" height="58" rx="8" fill="#FAECE7" stroke="#993C1D" stroke-width="0.8"/>
  <text class="bt" x="330" y="272" fill="#712B13">apply</text>
  <text class="bs" x="330" y="292" fill="#993C1D">Patch skills</text>

  <rect x="430" y="252" width="220" height="58" rx="8" fill="#FAEEDA" stroke="#854F0B" stroke-width="0.8"/>
  <text class="bt" x="540" y="272" fill="#633806">diff</text>
  <text class="bs" x="540" y="292" fill="#854F0B">Compare round1 ↔ round2</text>

  <!-- Arrows row 2→3 -->
  <path d="M197 198 L145 250" fill="none" class="arr" marker-end="url(#a)"/>
  <line x1="230" y1="281" x2="258" y2="281" class="arr" marker-end="url(#a)"/>
  <line x1="400" y1="281" x2="428" y2="281" class="arr" marker-end="url(#a)"/>

  <!-- Row 4: Harvest -->
  <rect x="60" y="362" width="170" height="58" rx="8" fill="#EAF3DE" stroke="#3B6D11" stroke-width="0.8"/>
  <text class="bt" x="145" y="382" fill="#27500A">mine</text>
  <text class="bs" x="145" y="402" fill="#3B6D11">Extract golden cases</text>

  <rect x="260" y="362" width="140" height="58" rx="8" fill="#EAF3DE" stroke="#3B6D11" stroke-width="0.8"/>
  <text class="bt" x="330" y="382" fill="#27500A">export</text>
  <text class="bs" x="330" y="402" fill="#3B6D11">JSONL / CSV</text>

  <rect x="430" y="362" width="220" height="58" rx="8" fill="#F1EFE8" stroke="#888780" stroke-width="0.8"/>
  <text class="bt" x="540" y="382" fill="#444441">CI gate</text>
  <text class="bs" x="540" y="402" fill="#656d76">Exit code → block merge</text>

  <!-- Arrows row 3→4 -->
  <path d="M145 310 L145 360" fill="none" class="arr" marker-end="url(#a)"/>
  <line x1="230" y1="391" x2="258" y2="391" class="arr" marker-end="url(#a)"/>
  <path d="M540 310 L540 360" fill="none" class="arr" marker-end="url(#a)"/>

  <!-- Feedback: export → back to edd.yaml -->
  <path d="M330 420 Q330 442 580 442 Q672 442 672 59 Q672 34 652 34" fill="none" stroke="#3B6D11" stroke-width="1" stroke-dasharray="5 3" marker-end="url(#ag)"/>

</svg>